<svg width="804.1999999999999px" height="122px" xmlns="http://www.w3.org/2000/svg" viewBox="-152.09999999999997 14 804.1999999999999 122" style="background: rgba(0, 0, 0, 0);" preserveAspectRatio="xMidYMid"><filter id="editing-goldstamp"><feFlood flood-color="#797549" result="flood"></feFlood><feMorphology operator="dilate" radius="2" in="SourceGraphic" result="outline"></feMorphology><feComposite operator="in" in="flood" in2="outline" result="outline2"></feComposite><feGaussianBlur stdDeviation="4" in="SourceAlpha" result="blur"></feGaussianBlur><feSpecularLighting surfaceScale="2" specularConstant="0.7" specularExponent="10" lighting-color="#white" in="blur" result="specular"><fePointLight x="200" y="-1000" z="300"></fePointLight></feSpecularLighting><feComposite operator="in" in="specular" in2="SourceGraphic" result="specular2"></feComposite><feComposite in="SourceGraphic" in2="specular2" operator="arithmetic" k1="3" k2="2" k3="1" k4="0" result="specular3"></feComposite><feMerge><feMergeNode in="outline2"></feMergeNode><feMergeNode in="specular3"></feMergeNode></feMerge></filter><g filter="url(#editing-goldstamp)"><g transform="translate(-38.98999547958374, 104.76000022888184)"><path d="M6.21-31.17L6.21-31.17L6.21-31.17Q4.03-32.83 4.03-36.38L4.03-36.38L4.03-36.38Q4.03-39.94 6.37-41.79L6.37-41.79L6.37-41.79Q8.70-43.65 12.74-43.65L12.74-43.65L12.74-43.65Q15.30-43.65 21.38-42.75L21.38-42.75L25.73-42.11L25.73-42.11Q27.90-41.86 30.18-41.86L30.18-41.86L30.18-41.86Q32.45-41.86 33.98-42.82L33.98-42.82L33.98-42.82Q36.29-40.77 36.29-37.82L36.29-37.82L36.29-37.82Q36.29-34.88 33.66-32.77L33.66-32.77L33.66-32.77Q30.98-30.53 27.52-30.53L27.52-30.53L27.52-30.53Q25.86-30.53 23.17-30.98L23.17-30.98L23.17-30.98Q20.03-21.12 20.03-14.27L20.03-14.27L20.03-14.27Q20.03-7.42 23.49-3.84L23.49-3.84L23.49-3.84Q21.89-0.96 19.52 0.16L19.52 0.16L19.52 0.16Q17.15 1.28 13.60 1.28L13.60 1.28L13.60 1.28Q10.05 1.28 7.84-0.67L7.84-0.67L7.84-0.67Q5.63-2.62 5.63-6.66L5.63-6.66L5.63-6.66Q5.63-11.33 8.19-19.01L8.19-19.01L8.19-19.01Q10.75-26.62 14.59-32.45L14.59-32.45L14.59-32.45Q12.74-32.64 10.82-32.64L10.82-32.64L10.82-32.64Q6.85-32.64 6.21-31.17ZM57.22-10.82L57.22-10.82L57.22-10.82Q58.82-9.73 58.82-7.33L58.82-7.33L58.82-7.33Q58.82-4.93 57.60-3.39L57.60-3.39L57.60-3.39Q56.38-1.86 54.40-0.83L54.40-0.83L54.40-0.83Q50.30 1.28 45.89 1.28L45.89 1.28L45.89 1.28Q41.47 1.28 38.88 0.32L38.88 0.32L38.88 0.32Q36.29-0.64 34.56-2.43L34.56-2.43L34.56-2.43Q31.17-5.82 31.17-12.03L31.17-12.03L31.17-12.03Q31.17-21.70 36.42-27.58L36.42-27.58L36.42-27.58Q42.05-33.92 51.84-33.92L51.84-33.92L51.84-33.92Q57.92-33.92 60.93-31.36L60.93-31.36L60.93-31.36Q63.17-29.44 63.17-26.30L63.17-26.30L63.17-26.30Q63.17-15.04 43.71-15.04L43.71-15.04L43.71-15.04Q43.46-13.38 43.46-11.97L43.46-11.97L43.46-11.97Q43.46-9.02 44.77-7.90L44.77-7.90L44.77-7.90Q46.08-6.78 48.51-6.78L48.51-6.78L48.51-6.78Q50.94-6.78 53.54-7.90L53.54-7.90L53.54-7.90Q56.13-9.02 57.22-10.82ZM44.16-17.79L44.16-17.79L44.16-17.79Q48.70-17.79 51.33-20.61L51.33-20.61L51.33-20.61Q53.95-23.30 53.95-27.58L53.95-27.58L53.95-27.58Q53.95-29.06 53.41-29.86L53.41-29.86L53.41-29.86Q52.86-30.66 51.78-30.66L51.78-30.66L51.78-30.66Q50.69-30.66 49.76-30.24L49.76-30.24L49.76-30.24Q48.83-29.82 47.87-28.42L47.87-28.42L47.87-28.42Q45.50-25.22 44.16-17.79ZM96.77-26.62L96.77-26.62L96.77-26.62Q96.77-23.94 94.53-22.27L94.53-22.27L94.53-22.27Q92.29-20.61 88.64-20.61L88.64-20.61L88.64-20.61Q87.10-20.61 86.21-21.06L86.21-21.06L86.21-21.06Q86.91-22.72 87.14-24.80L87.14-24.80L87.14-24.80Q87.36-26.88 87.36-27.46L87.36-27.46L87.36-27.46Q87.36-30.14 85.50-30.14L85.50-30.14L85.50-30.14Q84.22-30.14 82.78-28.54L82.78-28.54L82.78-28.54Q81.34-26.94 80.13-24.45L80.13-24.45L80.13-24.45Q77.44-18.69 77.44-12.86L77.44-12.86L77.44-12.86Q77.44-9.66 78.66-8.22L78.66-8.22L78.66-8.22Q79.87-6.78 82.56-6.78L82.56-6.78L82.56-6.78Q86.27-6.78 89.22-9.86L89.22-9.86L89.22-9.86Q90.05-10.82 90.50-11.90L90.50-11.90L90.50-11.90Q92.93-10.62 92.93-7.10L92.93-7.10L92.93-7.10Q92.93-3.52 88.96-1.15L88.96-1.15L88.96-1.15Q84.86 1.28 78.34 1.28L78.34 1.28L78.34 1.28Q65.34 1.28 65.34-12.48L65.34-12.48L65.34-12.48Q65.34-22.53 71.04-28.29L71.04-28.29L71.04-28.29Q76.54-33.92 86.66-33.92L86.66-33.92L86.66-33.92Q96.77-33.92 96.77-26.62ZM125.57 1.28L125.57 1.28L125.57 1.28Q117.82 1.28 117.82-4.74L117.82-4.74L117.82-4.74Q117.89-6.40 118.40-9.22L118.40-9.22L119.55-15.10L119.55-15.10Q121.28-23.42 121.28-25.28L121.28-25.28L121.28-25.28Q121.28-28.99 119.10-28.99L119.10-28.99L119.10-28.99Q115.46-28.99 113.54-19.46L113.54-19.46L109.76 0L96.90 1.28L103.55-32.70L114.05-33.92L113.02-27.65L113.02-27.65Q116.03-33.92 125.25-33.92L125.25-33.92L125.25-33.92Q129.73-33.92 131.62-32.03L131.62-32.03L131.62-32.03Q133.50-30.14 133.50-25.92L133.50-25.92L133.50-25.92Q133.50-21.95 131.46-12.67L131.46-12.67L131.46-12.67Q130.50-8.51 130.50-6.94L130.50-6.94L130.50-6.94Q130.50-5.38 131.36-4.48L131.36-4.48L131.36-4.48Q132.22-3.58 133.50-3.46L133.50-3.46L133.50-3.46Q132.86-1.28 130.66 0L130.66 0L130.66 0Q128.45 1.28 125.57 1.28ZM152.58 1.28L152.58 1.28L152.58 1.28Q138.50 1.28 138.50-11.97L138.50-11.97L138.50-11.97Q138.50-21.38 143.68-27.46L143.68-27.46L143.68-27.46Q149.18-33.92 158.72-33.92L158.72-33.92L158.72-33.92Q165.63-33.92 169.15-30.72L169.15-30.72L169.15-30.72Q172.67-27.52 172.67-20.80L172.67-20.80L172.67-20.80Q172.67-10.56 167.17-4.61L167.17-4.61L167.17-4.61Q161.79 1.28 152.58 1.28ZM154.24-26.56L154.24-26.56L154.24-26.56Q153.47-24.83 152.86-22.24L152.86-22.24L152.86-22.24Q152.26-19.65 151.49-15.55L151.49-15.55L151.49-15.55Q150.72-11.46 150.72-6.40L150.72-6.40L150.72-6.40Q150.72-4.74 151.26-3.65L151.26-3.65L151.26-3.65Q151.81-2.56 153.28-2.56L153.28-2.56L153.28-2.56Q154.75-2.56 155.68-3.26L155.68-3.26L155.68-3.26Q156.61-3.97 157.31-5.63L157.31-5.63L157.31-5.63Q158.59-8.58 159.62-14.05L159.62-14.05L159.62-14.05Q160.64-19.52 160.74-21.89L160.74-21.89L160.74-21.89Q160.83-24.26 160.83-26.02L160.83-26.02L160.83-26.02Q160.83-27.78 160.32-28.93L160.32-28.93L160.32-28.93Q159.81-30.08 158.37-30.08L158.37-30.08L158.37-30.08Q156.93-30.08 155.97-29.18L155.97-29.18L155.97-29.18Q155.01-28.29 154.24-26.56ZM191.74-3.52L191.74-3.52L191.74-3.52Q189.76 1.28 183.42 1.28L183.42 1.28L183.42 1.28Q180.22 1.28 178.18-0.96L178.18-0.96L178.18-0.96Q176.51-2.82 176.51-4.93L176.51-4.93L176.51-4.93Q176.51-9.73 178.75-20.22L178.75-20.22L183.42-44.80L196.42-46.08L190.21-13.70L190.21-13.70Q189.12-8.96 189.12-7.30L189.12-7.30L189.12-7.30Q189.12-3.65 191.74-3.52ZM211.14 1.28L211.14 1.28L211.14 1.28Q197.06 1.28 197.06-11.97L197.06-11.97L197.06-11.97Q197.06-21.38 202.24-27.46L202.24-27.46L202.24-27.46Q207.74-33.92 217.28-33.92L217.28-33.92L217.28-33.92Q224.19-33.92 227.71-30.72L227.71-30.72L227.71-30.72Q231.23-27.52 231.23-20.80L231.23-20.80L231.23-20.80Q231.23-10.56 225.73-4.61L225.73-4.61L225.73-4.61Q220.35 1.28 211.14 1.28ZM212.80-26.56L212.80-26.56L212.80-26.56Q212.03-24.83 211.42-22.24L211.42-22.24L211.42-22.24Q210.82-19.65 210.05-15.55L210.05-15.55L210.05-15.55Q209.28-11.46 209.28-6.40L209.28-6.40L209.28-6.40Q209.28-4.74 209.82-3.65L209.82-3.65L209.82-3.65Q210.37-2.56 211.84-2.56L211.84-2.56L211.84-2.56Q213.31-2.56 214.24-3.26L214.24-3.26L214.24-3.26Q215.17-3.97 215.87-5.63L215.87-5.63L215.87-5.63Q217.15-8.58 218.18-14.05L218.18-14.05L218.18-14.05Q219.20-19.52 219.30-21.89L219.30-21.89L219.30-21.89Q219.39-24.26 219.39-26.02L219.39-26.02L219.39-26.02Q219.39-27.78 218.88-28.93L218.88-28.93L218.88-28.93Q218.37-30.08 216.93-30.08L216.93-30.08L216.93-30.08Q215.49-30.08 214.53-29.18L214.53-29.18L214.53-29.18Q213.57-28.29 212.80-26.56ZM239.55-26.75L239.55-26.75L239.55-26.75Q241.73-29.82 245.02-31.87L245.02-31.87L245.02-31.87Q248.32-33.92 252.35-33.92L252.35-33.92L252.35-33.92Q256.38-33.92 258.30-32.64L258.30-32.64L270.85-33.92L266.50-9.34L266.50-9.34Q264.26 3.20 259.52 8.13L259.52 8.13L259.52 8.13Q254.98 12.80 246.14 12.80L246.14 12.80L246.14 12.80Q239.42 12.80 235.58 10.69L235.58 10.69L235.58 10.69Q231.74 8.58 231.74 5.06L231.74 5.06L231.74 5.06Q231.74 2.43 233.73 0.93L233.73 0.93L233.73 0.93Q235.71-0.58 238.78-0.58L238.78-0.58L238.78-0.58Q241.47-0.58 243.52 0.64L243.52 0.64L243.52 0.64Q244.74 1.28 245.31 2.18L245.31 2.18L245.31 2.18Q243.84 3.46 243.84 5.57L243.84 5.57L243.84 5.57Q243.84 8.32 246.40 8.32L246.40 8.32L246.40 8.32Q250.69 8.32 253.12-1.79L253.12-1.79L253.12-1.79Q253.82-4.54 254.40-7.30L254.40-7.30L254.40-7.30Q251.52-3.78 244.99-3.78L244.99-3.78L244.99-3.78Q240.45-3.78 237.82-5.95L237.82-5.95L237.82-5.95Q235.20-8.13 235.20-13.25L235.20-13.25L235.20-13.25Q235.20-16.45 236.29-20.06L236.29-20.06L236.29-20.06Q237.38-23.68 239.55-26.75ZM247.87-13.06L247.87-13.06L247.87-13.06Q247.87-8.70 250.11-8.70L250.11-8.70L250.11-8.70Q251.65-8.70 253.12-10.37L253.12-10.37L253.12-10.37Q254.27-11.71 254.72-13.70L254.72-13.70L257.98-30.14L257.98-30.14Q257.66-30.21 257.34-30.34L257.34-30.34L257.34-30.34Q256.70-30.59 255.87-30.59L255.87-30.59L255.87-30.59Q251.97-30.59 249.66-24.19L249.66-24.19L249.66-24.19Q247.87-19.20 247.87-13.06ZM288.70-3.52L288.70-3.52L288.70-3.52Q286.72 1.28 280.38 1.28L280.38 1.28L280.38 1.28Q277.12 1.28 275.07-0.96L275.07-0.96L275.07-0.96Q273.34-2.94 273.34-4.93L273.34-4.93L273.34-4.93Q273.34-10.11 275.71-20.22L275.71-20.22L278.08-32.64L291.07-33.92L287.17-13.70L287.17-13.70Q286.08-8.96 286.08-7.30L286.08-7.30L286.08-7.30Q286.08-3.65 288.70-3.52ZM279.23-41.54L279.23-41.54L279.23-41.54Q279.23-44.03 281.31-45.38L281.31-45.38L281.31-45.38Q283.39-46.72 286.40-46.72L286.40-46.72L286.40-46.72Q289.41-46.72 291.23-45.38L291.23-45.38L291.23-45.38Q293.06-44.03 293.06-41.54L293.06-41.54L293.06-41.54Q293.06-39.04 291.04-37.76L291.04-37.76L291.04-37.76Q289.02-36.48 286.02-36.48L286.02-36.48L286.02-36.48Q283.01-36.48 281.12-37.76L281.12-37.76L281.12-37.76Q279.23-39.04 279.23-41.54ZM296.93-1.92L296.93-1.92L296.93-1.92Q295.42-3.58 294.75-6.21L294.75-6.21L294.75-6.21Q294.08-8.83 294.08-13.12L294.08-13.12L294.08-13.12Q294.08-17.41 295.55-21.31L295.55-21.31L295.55-21.31Q297.02-25.22 299.71-28.03L299.71-28.03L299.71-28.03Q305.22-33.92 314.30-33.92L314.30-33.92L314.30-33.92Q317.57-33.92 319.94-32.83L319.94-32.83L330.88-33.92L326.14-8.96L326.14-8.96Q325.95-8.19 325.95-6.78L325.95-6.78L325.95-6.78Q325.95-5.38 326.82-4.48L326.82-4.48L326.82-4.48Q327.68-3.58 328.96-3.46L328.96-3.46L328.96-3.46Q328.32-1.28 325.98 0L325.98 0L325.98 0Q323.65 1.28 321.02 1.28L321.02 1.28L321.02 1.28Q318.40 1.28 316.64 0.29L316.64 0.29L316.64 0.29Q314.88-0.70 314.37-2.37L314.37-2.37L314.37-2.37Q313.34-0.77 311.17 0.26L311.17 0.26L311.17 0.26Q308.99 1.28 306.08 1.28L306.08 1.28L306.08 1.28Q303.17 1.28 300.80 0.51L300.80 0.51L300.80 0.51Q298.43-0.26 296.93-1.92ZM310.43-27.90L310.43-27.90L310.43-27.90Q309.70-26.75 309.06-24.80L309.06-24.80L309.06-24.80Q308.42-22.85 307.36-17.63L307.36-17.63L307.36-17.63Q306.30-12.42 306.30-8.70L306.30-8.70L306.30-8.70Q306.30-4.99 306.88-3.90L306.88-3.90L306.88-3.90Q307.46-2.82 308.48-2.82L308.48-2.82L308.48-2.82Q310.53-2.82 312.03-4.77L312.03-4.77L312.03-4.77Q313.54-6.72 314.11-10.18L314.11-10.18L317.50-28.93L317.50-28.93Q316.16-30.08 314.59-30.08L314.59-30.08L314.59-30.08Q313.02-30.08 312.10-29.57L312.10-29.57L312.10-29.57Q311.17-29.06 310.43-27.90ZM374.59 1.28L374.59 1.28L374.59 1.28Q366.85 1.28 366.85-4.74L366.85-4.74L366.85-4.74Q366.91-6.40 367.42-9.22L367.42-9.22L368.58-15.10L368.58-15.10Q370.30-23.42 370.30-25.28L370.30-25.28L370.30-25.28Q370.30-28.99 368.13-28.99L368.13-28.99L368.13-28.99Q364.48-28.99 362.56-19.46L362.56-19.46L358.78 0L345.92 1.28L352.58-32.70L363.07-33.92L362.05-27.65L362.05-27.65Q365.06-33.92 374.27-33.92L374.27-33.92L374.27-33.92Q378.75-33.92 380.64-32.03L380.64-32.03L380.64-32.03Q382.53-30.14 382.53-25.92L382.53-25.92L382.53-25.92Q382.53-21.95 380.48-12.67L380.48-12.67L380.48-12.67Q379.52-8.51 379.52-6.94L379.52-6.94L379.52-6.94Q379.52-5.38 380.38-4.48L380.38-4.48L380.38-4.48Q381.25-3.58 382.53-3.46L382.53-3.46L382.53-3.46Q381.89-1.28 379.68 0L379.68 0L379.68 0Q377.47 1.28 374.59 1.28ZM390.43-1.92L390.43-1.92L390.43-1.92Q388.93-3.58 388.26-6.21L388.26-6.21L388.26-6.21Q387.58-8.83 387.58-13.12L387.58-13.12L387.58-13.12Q387.58-17.41 389.06-21.31L389.06-21.31L389.06-21.31Q390.53-25.22 393.22-28.03L393.22-28.03L393.22-28.03Q398.72-33.92 407.81-33.92L407.81-33.92L407.81-33.92Q411.07-33.92 413.44-32.83L413.44-32.83L424.38-33.92L419.65-8.96L419.65-8.96Q419.46-8.19 419.46-6.78L419.46-6.78L419.46-6.78Q419.46-5.38 420.32-4.48L420.32-4.48L420.32-4.48Q421.18-3.58 422.46-3.46L422.46-3.46L422.46-3.46Q421.82-1.28 419.49 0L419.49 0L419.49 0Q417.15 1.28 414.53 1.28L414.53 1.28L414.53 1.28Q411.90 1.28 410.14 0.29L410.14 0.29L410.14 0.29Q408.38-0.70 407.87-2.37L407.87-2.37L407.87-2.37Q406.85-0.77 404.67 0.26L404.67 0.26L404.67 0.26Q402.50 1.28 399.58 1.28L399.58 1.28L399.58 1.28Q396.67 1.28 394.30 0.51L394.30 0.51L394.30 0.51Q391.94-0.26 390.43-1.92ZM403.94-27.90L403.94-27.90L403.94-27.90Q403.20-26.75 402.56-24.80L402.56-24.80L402.56-24.80Q401.92-22.85 400.86-17.63L400.86-17.63L400.86-17.63Q399.81-12.42 399.81-8.70L399.81-8.70L399.81-8.70Q399.81-4.99 400.38-3.90L400.38-3.90L400.38-3.90Q400.96-2.82 401.98-2.82L401.98-2.82L401.98-2.82Q404.03-2.82 405.54-4.77L405.54-4.77L405.54-4.77Q407.04-6.72 407.62-10.18L407.62-10.18L411.01-28.93L411.01-28.93Q409.66-30.08 408.10-30.08L408.10-30.08L408.10-30.08Q406.53-30.08 405.60-29.57L405.60-29.57L405.60-29.57Q404.67-29.06 403.94-27.90ZM487.10 1.28L487.10 1.28L487.10 1.28Q479.36 1.28 479.36-4.74L479.36-4.74L479.36-4.74Q479.36-7.36 480.48-12.45L480.48-12.45L480.48-12.45Q481.60-17.54 481.98-19.58L481.98-19.58L481.98-19.58Q482.88-24.26 482.88-25.73L482.88-25.73L482.88-25.73Q482.88-28.99 480.45-28.99L480.45-28.99L480.45-28.99Q478.85-28.99 477.31-26.78L477.31-26.78L477.31-26.78Q475.78-24.58 475.07-20.16L475.07-20.16L471.10 0L458.62 1.28L462.08-16.13L462.08-16.13Q462.66-19.01 463.17-22.27L463.17-22.27L463.17-22.27Q463.68-25.54 463.68-26.05L463.68-26.05L463.68-26.05Q463.68-28.99 461.50-28.99L461.50-28.99L461.50-28.99Q460.03-28.99 458.43-26.82L458.43-26.82L458.43-26.82Q456.83-24.64 455.94-20.16L455.94-20.16L452.03 0L439.42 1.28L446.14-32.64L456.58-33.92L455.49-27.46L455.49-27.46Q457.15-30.91 460.22-32.42L460.22-32.42L460.22-32.42Q463.30-33.92 468.10-33.92L468.10-33.92L468.10-33.92Q470.85-33.92 472.64-32.58L472.64-32.58L472.64-32.58Q474.43-31.23 475.01-29.06L475.01-29.06L475.01-29.06Q476.10-31.30 478.88-32.61L478.88-32.61L478.88-32.61Q481.66-33.92 485.09-33.92L485.09-33.92L485.09-33.92Q488.51-33.92 490.21-33.18L490.21-33.18L490.21-33.18Q491.90-32.45 492.93-31.23L492.93-31.23L492.93-31.23Q494.66-28.99 494.66-24.90L494.66-24.90L494.66-24.90Q494.66-20.86 492.93-12.48L492.93-12.48L492.93-12.48Q492.03-8.38 492.03-6.88L492.03-6.88L492.03-6.88Q492.03-5.38 492.90-4.48L492.90-4.48L492.90-4.48Q493.76-3.58 495.04-3.46L495.04-3.46L495.04-3.46Q494.40-1.28 492.19 0L492.19 0L492.19 0Q489.98 1.28 487.10 1.28ZM502.75-1.92L502.75-1.92L502.75-1.92Q501.25-3.58 500.58-6.21L500.58-6.21L500.58-6.21Q499.90-8.83 499.90-13.12L499.90-13.12L499.90-13.12Q499.90-17.41 501.38-21.31L501.38-21.31L501.38-21.31Q502.85-25.22 505.54-28.03L505.54-28.03L505.54-28.03Q511.04-33.92 520.13-33.92L520.13-33.92L520.13-33.92Q523.39-33.92 525.76-32.83L525.76-32.83L536.70-33.92L531.97-8.96L531.97-8.96Q531.78-8.19 531.78-6.78L531.78-6.78L531.78-6.78Q531.78-5.38 532.64-4.48L532.64-4.48L532.64-4.48Q533.50-3.58 534.78-3.46L534.78-3.46L534.78-3.46Q534.14-1.28 531.81 0L531.81 0L531.81 0Q529.47 1.28 526.85 1.28L526.85 1.28L526.85 1.28Q524.22 1.28 522.46 0.29L522.46 0.29L522.46 0.29Q520.70-0.70 520.19-2.37L520.19-2.37L520.19-2.37Q519.17-0.77 516.99 0.26L516.99 0.26L516.99 0.26Q514.82 1.28 511.90 1.28L511.90 1.28L511.90 1.28Q508.99 1.28 506.62 0.51L506.62 0.51L506.62 0.51Q504.26-0.26 502.75-1.92ZM516.26-27.90L516.26-27.90L516.26-27.90Q515.52-26.75 514.88-24.80L514.88-24.80L514.88-24.80Q514.24-22.85 513.18-17.63L513.18-17.63L513.18-17.63Q512.13-12.42 512.13-8.70L512.13-8.70L512.13-8.70Q512.13-4.99 512.70-3.90L512.70-3.90L512.70-3.90Q513.28-2.82 514.30-2.82L514.30-2.82L514.30-2.82Q516.35-2.82 517.86-4.77L517.86-4.77L517.86-4.77Q519.36-6.72 519.94-10.18L519.94-10.18L523.33-28.93L523.33-28.93Q521.98-30.08 520.42-30.08L520.42-30.08L520.42-30.08Q518.85-30.08 517.92-29.57L517.92-29.57L517.92-29.57Q516.99-29.06 516.26-27.90ZM516.54-39.49L516.54-39.49L516.54-39.49Q513.86-39.49 512.26-38.40L512.26-38.40L512.26-38.40Q510.98-40.26 510.98-42.18L510.98-42.18L510.98-42.18Q510.98-44.10 512.61-45.22L512.61-45.22L512.61-45.22Q514.24-46.34 517.31-46.34L517.31-46.34L517.31-46.34Q519.62-46.34 522.94-45.95L522.94-45.95L522.94-45.95Q528.96-45.25 531.23-45.25L531.23-45.25L531.23-45.25Q533.50-45.25 534.59-46.34L534.59-46.34L534.59-46.34Q535.81-44.93 535.81-42.85L535.81-42.85L535.81-42.85Q535.81-40.77 534.18-39.55L534.18-39.55L534.18-39.55Q532.54-38.34 529.66-38.34L529.66-38.34L529.66-38.34Q528.51-38.34 526.66-38.53L526.66-38.53L522.88-38.91L522.88-38.91Q520.96-39.10 519.23-39.30L519.23-39.30L519.23-39.30Q517.50-39.49 516.54-39.49ZM553.86 1.28L553.86 1.28L553.86 1.28Q539.78 1.28 539.78-11.97L539.78-11.97L539.78-11.97Q539.78-21.38 544.96-27.46L544.96-27.46L544.96-27.46Q550.46-33.92 560.00-33.92L560.00-33.92L560.00-33.92Q566.91-33.92 570.43-30.72L570.43-30.72L570.43-30.72Q573.95-27.52 573.95-20.80L573.95-20.80L573.95-20.80Q573.95-10.56 568.45-4.61L568.45-4.61L568.45-4.61Q563.07 1.28 553.86 1.28ZM555.52-26.56L555.52-26.56L555.52-26.56Q554.75-24.83 554.14-22.24L554.14-22.24L554.14-22.24Q553.54-19.65 552.77-15.55L552.77-15.55L552.77-15.55Q552.00-11.46 552.00-6.40L552.00-6.40L552.00-6.40Q552.00-4.74 552.54-3.65L552.54-3.65L552.54-3.65Q553.09-2.56 554.56-2.56L554.56-2.56L554.56-2.56Q556.03-2.56 556.96-3.26L556.96-3.26L556.96-3.26Q557.89-3.97 558.59-5.63L558.59-5.63L558.59-5.63Q559.87-8.58 560.90-14.05L560.90-14.05L560.90-14.05Q561.92-19.52 562.02-21.89L562.02-21.89L562.02-21.89Q562.11-24.26 562.11-26.02L562.11-26.02L562.11-26.02Q562.11-27.78 561.60-28.93L561.60-28.93L561.60-28.93Q561.09-30.08 559.65-30.08L559.65-30.08L559.65-30.08Q558.21-30.08 557.25-29.18L557.25-29.18L557.25-29.18Q556.29-28.29 555.52-26.56Z" fill="#999569"></path></g></g><style>text {
  font-size: 64px;
  font-family: Arial Black;
  dominant-baseline: central;
  text-anchor: middle;
}</style></svg>